# xmcd CD database file
#
# Track frame offsets:
#	182
#	29707
#	49605
#	73680
#	96360
#	122990
#	144307
#	173577
#	214547
#
# Disc length: 3212 seconds
#
# Revision: 3
# Processed by: cddbd v1.5.1PL0 Copyright (c) Steve Scherf et al.
# Submitted via: CDex 1.51
#
DISCID=800c8a09
DTITLE=Various (Sacred Sources 1) - Live Forever (Guts And Grace)
DYEAR=1993
DGENRE=Rock
TTITLE0=Jimi Hendrix - Message To Love (32) Live 30.05.70 1st
TTITLE1=Jimi Hendrix - Fire (71) Live 30.05.70 1st
TTITLE2=Jimi Hendrix - I Don't Live Today (41) Live 30.05.70 2nd
TTITLE3=Marvin Gaye - Joy (Live)
TTITLE4=Marvin Gaye - What's Going On  (Live)
TTITLE5=Bob Marley - Natural Mystic  (Live)
TTITLE6=Bob Marley - Exodus  (Live)
TTITLE7=Stevie Ray Vaughan - Riviera Paradise  (Live)
TTITLE8=John Coltrane - Ogunde  (Live)
EXTD=YEAR: 1993
EXTT0=
EXTT1=
EXTT2=
EXTT3=
EXTT4=
EXTT5=
EXTT6=
EXTT7=
EXTT8=
PLAYORDER=
